<svg xmlns="http://www.w3.org/2000/svg" xmlns:xlink="http://www.w3.org/1999/xlink" viewBox="0 0 66.19 78.03"><defs><style>.cls-1{fill:url(#linear-gradient);}.cls-2{fill:url(#linear-gradient-2);}</style><linearGradient id="linear-gradient" y1="43.35" x2="51.67" y2="43.35" gradientUnits="userSpaceOnUse"><stop offset="0" stop-color="#662d91"/><stop offset="1" stop-color="#66499e"/></linearGradient><linearGradient id="linear-gradient-2" x1="17.2" y1="39.01" x2="66.19" y2="39.01" xlink:href="#linear-gradient"/></defs><title>2face</title><g id="Layer_2" data-name="Layer 2"><g id="Layer_1-2" data-name="Layer 1"><path class="cls-1" d="M26.63,59c17.78-17.38,26-26.78,25-36.27-.11-1-.81-6.65-5.08-9.73-5.64-4.07-15.57-2.27-24.76,4.93l-4.29-9c-3.84,5.77-4.94,9.63-5.18,12.14a16.57,16.57,0,0,1-.75,3.8,17.26,17.26,0,0,1-3.18,5.63C4.47,35.14.59,35.2.07,38.52A4.61,4.61,0,0,0,.3,41c1,2.5,4.05,2.27,4.37,3.89s-2.7,2.69-3,5.36a5.8,5.8,0,0,0,1.61,4.14c-1.38,1-3.11,2.6-3,4.39s1.82,2,2.3,3.9c.74,3-2.79,4.73-2.3,7.79.26,1.64,1.82,2.71,4.83,4.87.15.11.6.43,1,.69,1.21.74,4,2.06,8.87,1.76l.16-6.93c1.3-1.36,3.4-3.55,6-6.25C24.16,61.52,26.28,59.33,26.63,59Z"/><path class="cls-2" d="M31.72,69.41v-.23l6.14-5.67C54,47.93,64.3,36.48,64.3,22.31c0-11-7-22.31-23.49-22.31A33.72,33.72,0,0,0,19.09,7.79l3.31,7.32c3.54-2.95,9.32-6.49,16.29-6.49,11.45,0,15.23,7.2,15.23,15-.12,11.57-9,21.48-28.57,40.14l-8.15,7.9V78h49V69.41Z"/></g></g></svg>