<svg xmlns="http://www.w3.org/2000/svg" xmlns:xlink="http://www.w3.org/1999/xlink" viewBox="0 0 126.36 126.36"><defs><style>.cls-1{fill:url(#linear-gradient);}.cls-2{fill:url(#linear-gradient-2);}.cls-3{fill:none;stroke-miterlimit:10;stroke-width:8px;stroke:url(#linear-gradient-3);}</style><linearGradient id="linear-gradient" x1="28.29" y1="64.03" x2="79.96" y2="64.03" gradientUnits="userSpaceOnUse"><stop offset="0" stop-color="#662d91"/><stop offset="1" stop-color="#66499e"/></linearGradient><linearGradient id="linear-gradient-2" x1="45.5" y1="59.7" x2="94.49" y2="59.7" xlink:href="#linear-gradient"/><linearGradient id="linear-gradient-3" x1="0" y1="63.18" x2="126.36" y2="63.18" xlink:href="#linear-gradient"/></defs><title>Asset 2</title><g id="Layer_2" data-name="Layer 2"><g id="Layer_1-2" data-name="Layer 1"><path class="cls-1" d="M54.92,79.67c17.79-17.37,26-26.78,25-36.27-.11-1-.8-6.65-5.08-9.73C69.16,29.6,59.24,31.4,50,38.6l-4.29-9c-3.84,5.78-4.93,9.64-5.18,12.15a16.76,16.76,0,0,1-.75,3.8,17.07,17.07,0,0,1-3.17,5.63c-3.89,4.66-7.77,4.72-8.29,8a4.57,4.57,0,0,0,.23,2.43c1,2.5,4.05,2.28,4.37,3.9s-2.69,2.68-3,5.36A5.8,5.8,0,0,0,31.58,75c-1.37,1-3.11,2.59-3,4.38s1.83,2,2.3,3.9c.75,3-2.79,4.74-2.3,7.8.27,1.63,1.82,2.71,4.84,4.87.14.1.6.42,1,.69,1.21.73,4,2,8.88,1.75l.15-6.93,6-6.24C52.46,82.21,54.57,80,54.92,79.67Z"/><path class="cls-2" d="M60,90.1v-.24l6.14-5.67C82.33,68.61,92.6,57.16,92.6,43c0-11-7-22.32-23.49-22.32a33.63,33.63,0,0,0-21.72,7.8l3.3,7.31C54.23,32.84,60,29.3,67,29.3c11.45,0,15.23,7.2,15.23,15-.12,11.57-9,21.49-28.57,40.14L45.5,92.34v6.37h49V90.1Z"/><circle class="cls-3" cx="63.18" cy="63.18" r="59.18"/></g></g></svg>