<svg xmlns="http://www.w3.org/2000/svg" xmlns:xlink="http://www.w3.org/1999/xlink" viewBox="0 0 125.44 129.95"><defs><style>.cls-1{fill:url(#linear-gradient);}.cls-2{fill:url(#linear-gradient-2);}.cls-3{fill:url(#linear-gradient-3);}</style><linearGradient id="linear-gradient" x1="35.16" y1="62.54" x2="80.67" y2="62.54" gradientUnits="userSpaceOnUse"><stop offset="0" stop-color="#662d91"/><stop offset="1" stop-color="#66499e"/></linearGradient><linearGradient id="linear-gradient-2" x1="50.31" y1="58.72" x2="93.46" y2="58.72" xlink:href="#linear-gradient"/><linearGradient id="linear-gradient-3" x1="0" y1="64.98" x2="125.44" y2="64.98" xlink:href="#linear-gradient"/></defs><title>Asset 4</title><g id="Layer_2" data-name="Layer 2"><g id="Layer_1-2" data-name="Layer 1"><path class="cls-1" d="M58.61,76.31C74.28,61,81.48,52.73,80.6,44.37c-.1-.9-.71-5.86-4.47-8.57-5-3.59-13.71-2-21.81,4.34L50.54,32.2c-3.39,5.09-4.35,8.49-4.57,10.7a14.27,14.27,0,0,1-.65,3.35,15.38,15.38,0,0,1-2.8,5c-3.43,4.1-6.84,4.16-7.3,7.08a4.14,4.14,0,0,0,.2,2.14c.9,2.21,3.57,2,3.85,3.44s-2.37,2.36-2.63,4.72a5.09,5.09,0,0,0,1.42,3.64c-1.21.89-2.74,2.29-2.64,3.87s1.61,1.73,2,3.43c.65,2.63-2.46,4.17-2,6.86.24,1.45,1.61,2.39,4.26,4.29.13.1.53.38.92.61,1.07.65,3.5,1.81,7.82,1.55l.13-6.11,5.3-5.5C56.44,78.55,58.3,76.61,58.61,76.31Z"/><path class="cls-2" d="M63.1,85.5v-.21l5.41-5C82.75,66.57,91.8,56.49,91.8,44c0-9.67-6.13-19.65-20.69-19.65A29.65,29.65,0,0,0,52,31.22l2.91,6.45C58,35.07,63.1,32,69.24,32c10.08,0,13.41,6.34,13.41,13.2-.1,10.19-7.9,18.93-25.16,35.36l-7.18,7v5.62H93.46V85.5Z"/><path class="cls-3" d="M123.22,11.52l-.39-2L62.61,0,2.4,9.53l-.34,2A138.12,138.12,0,0,0,.76,49.94C3.44,75.37,13,95.82,29,110.72a87,87,0,0,0,32.71,18.93l.91.3.91-.3a87,87,0,0,0,33.22-19.11c16-14.9,25.43-35.34,28-60.81A135.87,135.87,0,0,0,123.22,11.52ZM36.15,109.29c.56.43,1.08.91,1.64,1.34Zm64.41-11.48,1.13-1.47C101.3,96.81,101,97.33,100.56,97.81Zm2.25-3-1.08,1.52c.35-.52.74-1,1.08-1.52A89.3,89.3,0,0,0,117,61.42,88.65,88.65,0,0,1,102.81,94.82Zm15.12-38.16-.13.78-.13.78-.13.78a5.44,5.44,0,0,1-.17.78,5.49,5.49,0,0,1-.18.78,4.36,4.36,0,0,1-.17.78,88.61,88.61,0,0,1-14.21,33.39c-.34.48-.73,1-1.08,1.52s-.74,1-1.13,1.47c-.17.26-.39.48-.6.74l-.61.74c-.39.47-.82,1-1.21,1.42-.22.22-.44.48-.65.7s-.43.47-.65.69-.43.48-.65.69c-1.08,1.17-2.25,2.34-3.47,3.43a82,82,0,0,1-30.1,17.54,82.69,82.69,0,0,1-24.82-13.21c-.57-.44-1.13-.87-1.65-1.35-1.08-.9-2.16-1.81-3.2-2.81C-.06,75.8,5.52,26.42,7.43,14.64L62.66,5.93l55.18,8.71v0h0c.08.48.17,1,.26,1.61s.21,1.56.34,2.47q.06.46.12,1A133.27,133.27,0,0,1,117.93,56.66Z"/></g></g></svg>