<svg xmlns="http://www.w3.org/2000/svg" viewBox="0 0 58.3 68.73"><defs><style>.cls-1{fill:#fff;}</style></defs><title>Asset 6</title><g id="Layer_2" data-name="Layer 2"><g id="Layer_1-2" data-name="Layer 1"><path class="cls-1" d="M23.45,52c15.67-15.3,22.87-23.58,22-31.94-.1-.9-.71-5.86-4.47-8.57-5-3.58-13.71-2-21.81,4.34L15.38,7.84C12,12.93,11,16.33,10.81,18.54a14.27,14.27,0,0,1-.65,3.35,15.38,15.38,0,0,1-2.8,5C3.93,31,.52,31,.06,33.93a4.14,4.14,0,0,0,.2,2.14c.9,2.21,3.57,2,3.85,3.44s-2.37,2.36-2.63,4.72A5.06,5.06,0,0,0,2.9,47.87C1.69,48.76.16,50.16.26,51.74s1.61,1.73,2,3.43C2.94,57.8-.17,59.34.26,62c.24,1.45,1.61,2.39,4.26,4.3.13.09.53.37.92.6,1.07.65,3.5,1.81,7.82,1.55l.13-6.11,5.3-5.5C21.28,54.19,23.14,52.25,23.45,52Z"/><path class="cls-1" d="M27.94,61.14v-.21l5.41-5C47.59,42.21,56.64,32.13,56.64,19.65,56.64,10,50.51,0,36,0A29.65,29.65,0,0,0,16.82,6.86l2.91,6.45c3.12-2.6,8.21-5.72,14.35-5.72,10.08,0,13.41,6.34,13.41,13.2-.1,10.19-7.9,18.93-25.16,35.36l-7.18,7v5.62H58.3V61.14Z"/></g></g></svg>